<!DOCTYPE svg PUBLIC "-//W3C//DTD SVG 1.1//EN" "http://www.w3.org/Graphics/SVG/1.1/DTD/svg11.dtd">
<!-- Uploaded to: SVG Repo, www.svgrepo.com, Transformed by: SVG Repo Mixer Tools -->
<svg fill="#93b1c9" width="800px" height="800px" viewBox="-1.6 -1.6 19.20 19.20" xmlns="http://www.w3.org/2000/svg" stroke="#93b1c9" transform="rotate(0)" stroke-width="0.41600000000000004">
<g id="SVGRepo_bgCarrier" stroke-width="0"/>
<g id="SVGRepo_tracerCarrier" stroke-linecap="round" stroke-linejoin="round" stroke="#CCCCCC" stroke-width="0.192"/>
<g id="SVGRepo_iconCarrier">
<path fill-rule="evenodd" d="M7.375 3.67c0-.645-.56-1.17-1.25-1.17s-1.25.525-1.25 1.17c0 .646.56 1.17 1.25 1.17s1.25-.524 1.25-1.17zm0 8.66c0-.646-.56-1.17-1.25-1.17s-1.25.524-1.25 1.17c0 .645.56 1.17 1.25 1.17s1.25-.525 1.25-1.17zm-1.25-5.5c.69 0 1.25.525 1.25 1.17 0 .645-.56 1.17-1.25 1.17S4.875 8.645 4.875 8c0-.645.56-1.17 1.25-1.17zm5-3.16c0-.645-.56-1.17-1.25-1.17s-1.25.525-1.25 1.17c0 .646.56 1.17 1.25 1.17s1.25-.524 1.25-1.17zm-1.25 7.49c.69 0 1.25.524 1.25 1.17 0 .645-.56 1.17-1.25 1.17s-1.25-.525-1.25-1.17c0-.646.56-1.17 1.25-1.17zM11.125 8c0-.645-.56-1.17-1.25-1.17s-1.25.525-1.25 1.17c0 .645.56 1.17 1.25 1.17s1.25-.525 1.25-1.17z"/>
</g>
</svg>